<svg xmlns="http://www.w3.org/2000/svg" viewBox="0 0 64 64" aria-label="微信支付">
  <rect width="64" height="64" rx="14" fill="#07C160"/>
  <g fill="#fff">
    <path d="M26.4 18.2c-8.4 0-15.2 5.7-15.2 12.7 0 3.8 2 7.1 5.1 9.5l-1.1 4.3 5.2-2.5c1.8.7 3.8 1.1 6 1.1.9 0 1.8-.1 2.7-.2-.6-1.4-.9-2.8-.9-4.4 0-6.2 5.7-11.3 13.1-12.1-2-4.9-7.8-8.4-14.9-8.4Z"/>
    <path d="M39.9 29.2c-6.7 0-12.2 4.5-12.2 10 0 5.6 5.5 10.1 12.2 10.1 1.6 0 3.2-.3 4.6-.8l4.2 2-1-3.4c2.7-1.9 4.4-4.7 4.4-7.9 0-5.5-5.5-10-12.2-10Z"/>
  </g>
  <circle cx="21.5" cy="29.9" r="2.1" fill="#07C160"/>
  <circle cx="31.8" cy="29.9" r="2.1" fill="#07C160"/>
  <circle cx="35.9" cy="38.6" r="1.7" fill="#07C160"/>
  <circle cx="44.3" cy="38.6" r="1.7" fill="#07C160"/>
</svg>
